<?xml version="1.0" standalone="no"?>
<!DOCTYPE svg PUBLIC "-//W3C//DTD SVG 20010904//EN"
 "http://www.w3.org/TR/2001/REC-SVG-20010904/DTD/svg10.dtd">
<svg version="1.0" xmlns="http://www.w3.org/2000/svg"
 width="700.000000pt" height="700.000000pt" viewBox="0 0 700.000000 700.000000"
 preserveAspectRatio="xMidYMid meet">
<metadata>
Created by potrace 1.11, written by Peter Selinger 2001-2013
</metadata>
<g transform="translate(0.000000,700.000000) scale(0.100000,-0.100000)"
fill="#000000" stroke="none">
<path d="M3518 6946 c-1 -2 -75 -6 -163 -10 -88 -3 -173 -8 -190 -10 -16 -2
-57 -7 -90 -11 -33 -4 -69 -9 -80 -11 -10 -2 -37 -6 -60 -9 -86 -13 -245 -48
-360 -80 -1255 -351 -2207 -1379 -2459 -2655 -46 -235 -61 -395 -61 -665 0
-179 9 -355 19 -412 3 -11 7 -44 11 -74 11 -88 34 -206 70 -359 33 -146 121
-403 187 -549 187 -417 448 -789 772 -1100 95 -91 94 -90 161 -146 33 -27 62
-52 65 -55 14 -14 173 -131 228 -168 178 -120 371 -225 567 -310 280 -120 552
-198 860 -247 21 -4 91 -12 173 -20 190 -19 531 -20 671 -1 20 3 74 10 121 16
138 18 150 20 270 47 217 47 391 101 585 180 142 59 379 180 499 256 459 290
799 625 1101 1084 25 37 45 73 45 80 0 6 4 13 8 15 9 3 100 167 139 248 62
130 85 183 116 265 38 99 103 298 111 336 2 13 12 52 21 86 23 90 26 101 50
238 7 44 16 103 20 130 3 28 8 66 10 85 24 180 23 560 0 750 -3 19 -7 55 -10
80 -10 78 -43 255 -64 342 -84 347 -196 623 -390 963 -31 53 -157 241 -195
290 -17 22 -34 45 -38 50 -123 169 -375 426 -591 601 -81 66 -263 194 -276
194 -5 0 -11 3 -13 8 -1 4 -30 23 -63 43 -327 197 -682 340 -1040 418 -77 17
-158 33 -179 36 -21 3 -48 7 -60 10 -12 2 -48 7 -81 11 -33 3 -73 8 -90 10
-16 1 -91 6 -165 9 -74 4 -140 8 -147 10 -6 2 -13 2 -15 1z"/>
</g>
</svg>
